<svg width="28" height="28" viewBox="0 0 28 28" fill="none" xmlns="http://www.w3.org/2000/svg">
<path d="M17.5 2.625C17.5 4.07475 16.3248 5.25 14.875 5.25C13.4252 5.25 12.25 4.07475 12.25 2.625C12.25 1.17525 13.4252 0 14.875 0C16.3248 0 17.5 1.17525 17.5 2.625Z" fill="white"/>
<path d="M4.95442 9.53848C5.38371 8.03591 6.75706 7 8.31974 7H13.5378L18.4544 9.45829L22.0999 8.00016L23.3996 11.2498L19.7543 12.708C18.8261 13.0793 17.7833 13.0359 16.8892 12.5888L16.6267 12.4576L15.6909 16.2008L17.2169 17.0728C18.5783 17.8509 19.2563 19.4394 18.876 20.9606L17.1161 28H13.5084L15.4804 20.1117L12.5122 18.4156L10.1161 28H6.50837L10.8834 10.5H8.31974L7.31974 14H3.67969L4.95442 9.53848Z" fill="white"/>
</svg>
